<svg xmlns="http://www.w3.org/2000/svg" viewBox="0 0 738.51 472.49"><defs><style>.cls-1{font-size:30px;}.cls-1,.cls-11,.cls-4,.cls-5,.cls-6,.cls-7,.cls-8,.cls-9{fill:#231815;}.cls-1,.cls-11{font-family:KozGoPr6N-Bold-90ms-RKSJ-H, Kozuka Gothic Pr6N;}.cls-2{letter-spacing:0.25em;}.cls-3{fill:#efedd7;stroke:#e1ddcf;}.cls-16,.cls-3{stroke-miterlimit:10;}.cls-4{font-size:23.37px;}.cls-4,.cls-8{font-family:Impact;}.cls-6,.cls-7,.cls-8{font-size:17.3px;}.cls-6{font-family:Consolas;}.cls-7,.cls-9{font-family:KozGoPr6N-Regular-90ms-RKSJ-H, Kozuka Gothic Pr6N;}.cls-9{font-size:13.46px;}.cls-10{fill:#d6e7da;}.cls-11{font-size:11.54px;}.cls-12{fill:#e0cbe2;}.cls-13{fill:#fff;}.cls-14{fill:#898989;}.cls-15{fill:#d8d8d8;}.cls-16{fill:none;stroke:#595757;stroke-width:5px;}.cls-17{fill:#595757;}.cls-18{letter-spacing:0.25em;}.cls-19{letter-spacing:-0.5em;}</style></defs><title>webttage</title><g id="レイヤー_2" data-name="レイヤー 2"><g id="レイヤー_1-2" data-name="レイヤー 1"><text class="cls-1" transform="translate(3.28 26.4)">We<tspan class="cls-2" x="44.22" y="0">b</tspan><tspan x="70.17" y="0">ファイルの役割</tspan></text><rect class="cls-3" x="376.82" y="350.54" width="361.2" height="121.44"/><text class="cls-4" transform="translate(223.55 287.01)">&lt;/&gt;</text><path class="cls-5" d="M271.72,302.4a4.66,4.66,0,0,1-4.66,4.66H214.21a4.65,4.65,0,0,1-4.66-4.66V237.12a4.66,4.66,0,0,1,4.66-4.67H245.3a13,13,0,0,1,8,3.31l15.16,15.15a13,13,0,0,1,3.3,8Zm-6.22-1.55V263.54H245.3a4.67,4.67,0,0,1-4.67-4.66V238.67H215.76v62.18Zm-.39-43.53a6.22,6.22,0,0,0-1.06-2l-15.21-15.2a6.1,6.1,0,0,0-2-1.07v18.26Z"/><text class="cls-6" transform="translate(223.55 325.41)">HTML</text><path class="cls-5" d="M475,430.47a4.66,4.66,0,0,1-4.66,4.66H417.49a4.66,4.66,0,0,1-4.66-4.66V365.19a4.66,4.66,0,0,1,4.66-4.67h31.09a13,13,0,0,1,8,3.31L471.7,379a13,13,0,0,1,3.3,8Zm-6.22-1.55V391.61h-20.2a4.67,4.67,0,0,1-4.67-4.66V366.74H419v62.18Zm-.39-43.53a6.22,6.22,0,0,0-1.06-2l-15.21-15.2a6.1,6.1,0,0,0-2-1.07v18.26Z"/><text class="cls-7" transform="translate(432.39 452.33)">css</text><text class="cls-8" transform="translate(438.86 412.7)">{}</text><text class="cls-9" transform="translate(506.07 406.99)">見た目など表現制御</text><rect class="cls-10" x="376.2" y="198.77" width="361.2" height="131.81"/><path class="cls-5" d="M477.16,284.1a4.68,4.68,0,0,1-4.7,4.66H419.29a4.69,4.69,0,0,1-4.7-4.66V218.81a4.69,4.69,0,0,1,4.7-4.66h31.28a13.18,13.18,0,0,1,8,3.3l15.25,15.16a13,13,0,0,1,3.33,8Zm-6.26-1.56v-37.3H450.57a4.68,4.68,0,0,1-4.69-4.66V220.37h-25v62.17ZM470.51,239a6,6,0,0,0-1.08-2l-15.29-15.2a6.35,6.35,0,0,0-2-1.07V239Z"/><text class="cls-6" transform="translate(436.3 264.67) scale(1.01 1)">js</text><text class="cls-7" transform="translate(409.13 307.3) scale(1.01 1)">javascript</text><text class="cls-9" transform="translate(506.87 267.68) scale(1.01 1)">機能の制御</text><text class="cls-11" transform="translate(305.25 184.74)">取り寄せる<tspan x="0" y="16.82">命令</tspan></text><rect class="cls-12" x="376.82" y="48.64" width="361.2" height="131.81"/><path class="cls-5" d="M470.16,126.72a3.71,3.71,0,0,1-3.71,3.69H429.33a3.71,3.71,0,0,1-3.72-3.69v-28A3.71,3.71,0,0,1,429.33,95h37.12a3.71,3.71,0,0,1,3.71,3.69ZM429.33,97.94a.77.77,0,0,0-.75.74v28a.76.76,0,0,0,.75.73h37.12a.76.76,0,0,0,.74-.73v-28a.77.77,0,0,0-.74-.74ZM436,109.75a4.43,4.43,0,1,1,4.45-4.43A4.45,4.45,0,0,1,436,109.75Zm28.21,14.75H431.55v-4.42L439,112.7l3.71,3.69,11.88-11.81,9.65,9.59Z"/><path class="cls-5" d="M480.41,134.37a4.68,4.68,0,0,1-4.69,4.67H422.54a4.68,4.68,0,0,1-4.69-4.67V69.09a4.67,4.67,0,0,1,4.69-4.66h31.28a13.15,13.15,0,0,1,8,3.3l15.25,15.15a13.06,13.06,0,0,1,3.32,8Zm-6.26-1.55V95.51H453.82a4.68,4.68,0,0,1-4.69-4.66V70.64h-25v62.18Zm-.39-43.52a6.17,6.17,0,0,0-1.07-2l-15.3-15.2a6.13,6.13,0,0,0-2-1.07V89.3Z"/><text class="cls-6" transform="translate(434.77 156.72) scale(1.01 1)">jpg</text><path class="cls-5" d="M535.19,123.8a1.19,1.19,0,0,1-.71,1.07,1.5,1.5,0,0,1-.46.09,1.09,1.09,0,0,1-.81-.34l-7.31-7.27v3a5.22,5.22,0,0,1-5.23,5.2H507.9a5.22,5.22,0,0,1-5.23-5.2V107.65a5.21,5.21,0,0,1,5.23-5.19h12.77a5.21,5.21,0,0,1,5.23,5.19v3l7.31-7.24A1.06,1.06,0,0,1,534,103a1.5,1.5,0,0,1,.46.09,1.19,1.19,0,0,1,.71,1.07Z"/><path class="cls-5" d="M550.21,134.37a4.68,4.68,0,0,1-4.69,4.67H492.34a4.68,4.68,0,0,1-4.69-4.67V69.09a4.67,4.67,0,0,1,4.69-4.66h31.28a13.15,13.15,0,0,1,8,3.3l15.25,15.15a13,13,0,0,1,3.32,8ZM544,132.82V95.51H523.62a4.68,4.68,0,0,1-4.69-4.66V70.64h-25v62.18Zm-.39-43.52a6.17,6.17,0,0,0-1.07-2l-15.3-15.2a6.17,6.17,0,0,0-2-1.07V89.3Z"/><text class="cls-6" transform="translate(504.57 156.72) scale(1.01 1)">mp4</text><text class="cls-9" transform="translate(566.11 117.77) scale(1.01 1)">表現する材料や媒体</text><text class="cls-7" transform="translate(566.11 86.82) scale(1.01 1)">動画、画像、音声</text><rect class="cls-5" y="211.27" width="159.67" height="111.73"/><rect class="cls-13" x="1.81" y="222.38" width="155.07" height="96.11"/><circle class="cls-13" cx="6.14" cy="216.96" r="3.39"/><circle class="cls-13" cx="15.67" cy="216.96" r="3.39"/><circle class="cls-13" cx="25.52" cy="216.96" r="3.39"/><rect class="cls-14" x="1.83" y="226.7" width="155.07" height="61.52"/><rect class="cls-14" x="21.19" y="292.81" width="116.31" height="4.39"/><rect class="cls-15" x="83.14" y="301.69" width="54.36" height="4.53"/><rect class="cls-15" x="83.14" y="308.56" width="54.36" height="4.53"/><line class="cls-16" x1="353.57" y1="101.67" x2="307.4" y2="145.23"/><polygon class="cls-17" points="301.5 133.66 294.35 157.54 318.61 151.79 301.5 133.66"/><line class="cls-16" x1="353.57" y1="418.96" x2="308.94" y2="387.05"/><polygon class="cls-17" points="319.16 379.04 294.35 376.62 304.66 399.32 319.16 379.04"/><line class="cls-16" x1="338.98" y1="388.8" x2="294.35" y2="356.9"/><polygon class="cls-17" points="343.26 376.54 353.57 399.24 328.76 396.82 343.26 376.54"/><line class="cls-16" x1="353.57" y1="267.89" x2="312.29" y2="267.89"/><polygon class="cls-17" points="315.94 255.42 294.35 267.89 315.94 280.35 315.94 255.42"/><line class="cls-16" x1="199.41" y1="270.56" x2="187.74" y2="270.56"/><polygon class="cls-17" points="191.39 258.1 169.8 270.56 191.39 283.03 191.39 258.1"/><text class="cls-11" transform="translate(303.33 444.05)">取り寄せる<tspan x="0" y="16.82">命令</tspan></text><text class="cls-11" transform="translate(303.33 308.56)">取り寄せる<tspan x="0" y="16.82">命令</tspan></text><text class="cls-11" transform="translate(24.23 345.73)">ブラウザ<tspan class="cls-18" x="46.15" y="0">が</tspan><tspan x="60.57" y="0">HTM</tspan><tspan class="cls-18" x="85.19" y="0">L</tspan><tspan x="94.09" y="0">の</tspan><tspan x="0" y="16.82">情報を読み取り出力</tspan><tspan x="0" y="33.65">する</tspan><tspan class="cls-19" x="23.07" y="33.65">。</tspan></text><line class="cls-16" x1="352.22" y1="126.39" x2="306.05" y2="169.94"/><polygon class="cls-17" points="341.02 119.82 365.27 114.08 358.13 137.96 341.02 119.82"/><line class="cls-16" x1="335.19" y1="251.36" x2="293.9" y2="251.36"/><polygon class="cls-17" points="331.54 238.89 353.13 251.36 331.54 263.82 331.54 238.89"/></g></g></svg>